<svg width="32" height="32" viewBox="0 0 32 32" fill="none" xmlns="http://www.w3.org/2000/svg">
<g clip-path="url(#clip0_396_1696)">
<path d="M20 24C22.2091 24 24 22.2091 24 20C24 17.7909 22.2091 16 20 16C17.7909 16 16 17.7909 16 20C16 22.2091 17.7909 24 20 24Z" stroke="#0A67D1" stroke-width="1.5" stroke-linecap="round" stroke-linejoin="round"/>
<path d="M17.333 23.3333V29.3333L19.9997 27.3333L22.6663 29.3333V23.3333" stroke="#0A67D1" stroke-width="1.5" stroke-linecap="round" stroke-linejoin="round"/>
<path d="M13.3333 25.3333H6.66667C5.95942 25.3333 5.28115 25.0524 4.78105 24.5523C4.28095 24.0522 4 23.3739 4 22.6667V9.33332C4 7.86666 5.2 6.66666 6.66667 6.66666H25.3333C26.0406 6.66666 26.7189 6.94761 27.219 7.4477C27.719 7.9478 28 8.62608 28 9.33332V22.6667C27.9995 23.1343 27.8761 23.5936 27.6421 23.9984C27.408 24.4033 27.0717 24.7395 26.6667 24.9733" stroke="#0A67D1" stroke-width="1.5" stroke-linecap="round" stroke-linejoin="round"/>
<g filter="url(#filter0_f_396_1696)">
<path d="M13.3333 18H6.66667C5.95942 18 5.28115 17.8344 4.78105 17.5397C4.28095 17.245 4 16.8453 4 16.4286V8.57143C4 7.70714 5.2 7 6.66667 7H25.3333C26.0406 7 26.7189 7.16556 27.219 7.46026C27.719 7.75496 28 8.15466 28 8.57143V16.4286C27.9995 16.7041 27.8761 16.9748 27.6421 17.2134C27.408 17.452 27.0717 17.6501 26.6667 17.7879" fill="#0A67D1" fill-opacity="0.2"/>
</g>
<path d="M8 12H24" stroke="#0A67D1" stroke-width="1.5" stroke-linecap="round" stroke-linejoin="round"/>
<path d="M8 16H12" stroke="#0A67D1" stroke-width="1.5" stroke-linecap="round" stroke-linejoin="round"/>
<path d="M8 20H10.6667" stroke="#0A67D1" stroke-width="1.5" stroke-linecap="round" stroke-linejoin="round"/>
</g>
<defs>
<filter id="filter0_f_396_1696" x="0" y="3" width="32" height="19" filterUnits="userSpaceOnUse" color-interpolation-filters="sRGB">
<feFlood flood-opacity="0" result="BackgroundImageFix"/>
<feBlend mode="normal" in="SourceGraphic" in2="BackgroundImageFix" result="shape"/>
<feGaussianBlur stdDeviation="2" result="effect1_foregroundBlur_396_1696"/>
</filter>
<clipPath id="clip0_396_1696">
<rect width="32" height="32" fill="white"/>
</clipPath>
</defs>
</svg>
