<svg width="32" height="32" viewBox="0 0 32 32" fill="none" xmlns="http://www.w3.org/2000/svg">
<g clip-path="url(#clip0_412_1570)">
<path d="M5.3335 22.6667V25.3333C5.3335 26.0406 5.61445 26.7188 6.11454 27.2189C6.61464 27.719 7.29292 28 8.00016 28H24.0002C24.7074 28 25.3857 27.719 25.8858 27.2189C26.3859 26.7188 26.6668 26.0406 26.6668 25.3333V22.6667" stroke="#0A67D1" stroke-width="1.5" stroke-linecap="round" stroke-linejoin="round"/>
<g filter="url(#filter0_f_412_1570)">
<path d="M5.3335 22.6667V25.3334C5.3335 26.0406 5.61445 26.7189 6.11454 27.219C6.61464 27.7191 7.29292 28 8.00016 28H24.0002C24.7074 28 25.3857 27.7191 25.8858 27.219C26.3859 26.7189 26.6668 26.0406 26.6668 25.3334V22.6667" fill="#0A67D1" fill-opacity="0.2"/>
</g>
<path d="M9.3335 14.6667L16.0002 21.3333L22.6668 14.6667" stroke="#0A67D1" stroke-width="1.5" stroke-linecap="round" stroke-linejoin="round"/>
<path d="M16 5.33334V21.3333" stroke="#0A67D1" stroke-width="1.5" stroke-linecap="round" stroke-linejoin="round"/>
</g>
<defs>
<filter id="filter0_f_412_1570" x="1.3335" y="18.6667" width="29.3335" height="13.3333" filterUnits="userSpaceOnUse" color-interpolation-filters="sRGB">
<feFlood flood-opacity="0" result="BackgroundImageFix"/>
<feBlend mode="normal" in="SourceGraphic" in2="BackgroundImageFix" result="shape"/>
<feGaussianBlur stdDeviation="2" result="effect1_foregroundBlur_412_1570"/>
</filter>
<clipPath id="clip0_412_1570">
<rect width="32" height="32" fill="white"/>
</clipPath>
</defs>
</svg>
