<svg width="33" height="33" viewBox="0 0 33 33" fill="none" xmlns="http://www.w3.org/2000/svg">
<g clip-path="url(#clip0_1327_4200)">
<path d="M24.5003 11.1667H13.8337C12.3609 11.1667 11.167 12.3607 11.167 13.8334V24.5001C11.167 25.9728 12.3609 27.1667 13.8337 27.1667H24.5003C25.9731 27.1667 27.167 25.9728 27.167 24.5001V13.8334C27.167 12.3607 25.9731 11.1667 24.5003 11.1667Z" stroke="#0C6746" stroke-width="1.5" stroke-linecap="round" stroke-linejoin="round"/>
<path d="M21.833 11.1666V8.49992C21.833 7.79267 21.5521 7.1144 21.052 6.6143C20.5519 6.1142 19.8736 5.83325 19.1663 5.83325H8.49967C7.79243 5.83325 7.11415 6.1142 6.61406 6.6143C6.11396 7.1144 5.83301 7.79267 5.83301 8.49992V19.1666C5.83301 19.8738 6.11396 20.5521 6.61406 21.0522C7.11415 21.5523 7.79243 21.8333 8.49967 21.8333H11.1663" stroke="#0C6746" stroke-width="1.5" stroke-linecap="round" stroke-linejoin="round"/>
</g>
<defs>
<clipPath id="clip0_1327_4200">
<rect width="32" height="32" fill="white" transform="translate(0.5 0.5)"/>
</clipPath>
</defs>
</svg>
