<svg width="74" height="74" viewBox="0 0 74 74" fill="none" xmlns="http://www.w3.org/2000/svg">
<rect x="1" y="1" width="72" height="72" rx="5" fill="white"/>
<g clip-path="url(#clip0_396_1605)">
<path d="M23.667 23.6666H33.667" stroke="#0A67D1" stroke-width="1.7" stroke-linecap="round" stroke-linejoin="round"/>
<path d="M40.333 23.6666H50.333" stroke="#0A67D1" stroke-width="1.7" stroke-linecap="round" stroke-linejoin="round"/>
<path d="M30.3337 30.3334H27.0003C25.1594 30.3334 23.667 31.8258 23.667 33.6667V47C23.667 48.841 25.1594 50.3334 27.0003 50.3334H30.3337C32.1746 50.3334 33.667 48.841 33.667 47V33.6667C33.667 31.8258 32.1746 30.3334 30.3337 30.3334Z" stroke="#0A67D1" stroke-width="1.7" stroke-linecap="round" stroke-linejoin="round"/>
<g filter="url(#filter0_f_396_1605)">
<path d="M30.6667 30H27.3333C25.4924 30 24 31.0447 24 32.3333V41.6667C24 42.9553 25.4924 44 27.3333 44H30.6667C32.5076 44 34 42.9553 34 41.6667V32.3333C34 31.0447 32.5076 30 30.6667 30Z" fill="#0A67D1" fill-opacity="0.2"/>
</g>
<path d="M46.9997 30.3334H43.6663C41.8254 30.3334 40.333 31.8258 40.333 33.6667V37C40.333 38.841 41.8254 40.3334 43.6663 40.3334H46.9997C48.8406 40.3334 50.333 38.841 50.333 37V33.6667C50.333 31.8258 48.8406 30.3334 46.9997 30.3334Z" stroke="#0A67D1" stroke-width="1.7" stroke-linecap="round" stroke-linejoin="round"/>
<g filter="url(#filter1_f_396_1605)">
<path d="M46.6667 30H43.3333C41.4924 30 40 31.0447 40 32.3333V34.6667C40 35.9553 41.4924 37 43.3333 37H46.6667C48.5076 37 50 35.9553 50 34.6667V32.3333C50 31.0447 48.5076 30 46.6667 30Z" fill="#0A67D1" fill-opacity="0.2"/>
</g>
</g>
<rect x="1" y="1" width="72" height="72" rx="5" stroke="#F6F5FA"/>
<defs>
<filter id="filter0_f_396_1605" x="20" y="26" width="18" height="22" filterUnits="userSpaceOnUse" color-interpolation-filters="sRGB">
<feFlood flood-opacity="0" result="BackgroundImageFix"/>
<feBlend mode="normal" in="SourceGraphic" in2="BackgroundImageFix" result="shape"/>
<feGaussianBlur stdDeviation="2" result="effect1_foregroundBlur_396_1605"/>
</filter>
<filter id="filter1_f_396_1605" x="36" y="26" width="18" height="15" filterUnits="userSpaceOnUse" color-interpolation-filters="sRGB">
<feFlood flood-opacity="0" result="BackgroundImageFix"/>
<feBlend mode="normal" in="SourceGraphic" in2="BackgroundImageFix" result="shape"/>
<feGaussianBlur stdDeviation="2" result="effect1_foregroundBlur_396_1605"/>
</filter>
<clipPath id="clip0_396_1605">
<rect width="40" height="40" fill="white" transform="translate(17 17)"/>
</clipPath>
</defs>
</svg>
