<svg width="32" height="32" viewBox="0 0 32 32" fill="none" xmlns="http://www.w3.org/2000/svg">
<g clip-path="url(#clip0_551_2593)">
<path d="M5.3335 5.33337H13.3335" stroke="#0A67D1" stroke-width="1.7" stroke-linecap="round" stroke-linejoin="round"/>
<path d="M18.6665 5.33337H26.6665" stroke="#0A67D1" stroke-width="1.7" stroke-linecap="round" stroke-linejoin="round"/>
<path d="M10.6668 10.6666H8.00016C6.5274 10.6666 5.3335 11.8605 5.3335 13.3333V24C5.3335 25.4727 6.5274 26.6666 8.00016 26.6666H10.6668C12.1396 26.6666 13.3335 25.4727 13.3335 24V13.3333C13.3335 11.8605 12.1396 10.6666 10.6668 10.6666Z" stroke="#0A67D1" stroke-width="1.7" stroke-linecap="round" stroke-linejoin="round"/>
<g filter="url(#filter0_f_551_2593)">
<path d="M10.9334 10.4H8.26676C6.794 10.4 5.6001 11.2358 5.6001 12.2667V19.7334C5.6001 20.7643 6.794 21.6 8.26676 21.6H10.9334C12.4062 21.6 13.6001 20.7643 13.6001 19.7334V12.2667C13.6001 11.2358 12.4062 10.4 10.9334 10.4Z" fill="#0A67D1" fill-opacity="0.2"/>
</g>
<path d="M23.9998 10.6666H21.3332C19.8604 10.6666 18.6665 11.8605 18.6665 13.3333V16C18.6665 17.4727 19.8604 18.6666 21.3332 18.6666H23.9998C25.4726 18.6666 26.6665 17.4727 26.6665 16V13.3333C26.6665 11.8605 25.4726 10.6666 23.9998 10.6666Z" stroke="#0A67D1" stroke-width="1.7" stroke-linecap="round" stroke-linejoin="round"/>
<g filter="url(#filter1_f_551_2593)">
<path d="M23.7332 10.4H21.0666C19.5938 10.4 18.3999 11.2358 18.3999 12.2667V14.1334C18.3999 15.1643 19.5938 16 21.0666 16H23.7332C25.206 16 26.3999 15.1643 26.3999 14.1334V12.2667C26.3999 11.2358 25.206 10.4 23.7332 10.4Z" fill="#0A67D1" fill-opacity="0.2"/>
</g>
</g>
<defs>
<filter id="filter0_f_551_2593" x="1.6001" y="6.40002" width="16" height="19.2" filterUnits="userSpaceOnUse" color-interpolation-filters="sRGB">
<feFlood flood-opacity="0" result="BackgroundImageFix"/>
<feBlend mode="normal" in="SourceGraphic" in2="BackgroundImageFix" result="shape"/>
<feGaussianBlur stdDeviation="2" result="effect1_foregroundBlur_551_2593"/>
</filter>
<filter id="filter1_f_551_2593" x="14.3999" y="6.40002" width="16" height="13.6" filterUnits="userSpaceOnUse" color-interpolation-filters="sRGB">
<feFlood flood-opacity="0" result="BackgroundImageFix"/>
<feBlend mode="normal" in="SourceGraphic" in2="BackgroundImageFix" result="shape"/>
<feGaussianBlur stdDeviation="2" result="effect1_foregroundBlur_551_2593"/>
</filter>
<clipPath id="clip0_551_2593">
<rect width="32" height="32" fill="white"/>
</clipPath>
</defs>
</svg>
