<svg width="32" height="32" viewBox="0 0 32 32" fill="none" xmlns="http://www.w3.org/2000/svg">
<g clip-path="url(#clip0_412_1589)">
<g filter="url(#filter0_f_412_1589)">
<path d="M6 25V18H16L25 8.5V25" fill="#0A67D1" fill-opacity="0.2"/>
</g>
<path d="M8 26.6667C10.2091 26.6667 12 24.8758 12 22.6667C12 20.4575 10.2091 18.6667 8 18.6667C5.79086 18.6667 4 20.4575 4 22.6667C4 24.8758 5.79086 26.6667 8 26.6667Z" stroke="#0A67D1" stroke-width="1.5" stroke-linecap="round" stroke-linejoin="round"/>
<path d="M21.3335 26.6667C23.5426 26.6667 25.3335 24.8758 25.3335 22.6667C25.3335 20.4575 23.5426 18.6667 21.3335 18.6667C19.1244 18.6667 17.3335 20.4575 17.3335 22.6667C17.3335 24.8758 19.1244 26.6667 21.3335 26.6667Z" stroke="#0A67D1" stroke-width="1.5" stroke-linecap="round" stroke-linejoin="round"/>
<path d="M12 22.6666V5.33331H25.3333V22.6666" stroke="#0A67D1" stroke-width="1.5" stroke-linecap="round" stroke-linejoin="round"/>
<path d="M12 10.6667H25.3333" stroke="#0A67D1" stroke-width="1.5" stroke-linecap="round" stroke-linejoin="round"/>
</g>
<defs>
<filter id="filter0_f_412_1589" x="2" y="4.5" width="27" height="24.5" filterUnits="userSpaceOnUse" color-interpolation-filters="sRGB">
<feFlood flood-opacity="0" result="BackgroundImageFix"/>
<feBlend mode="normal" in="SourceGraphic" in2="BackgroundImageFix" result="shape"/>
<feGaussianBlur stdDeviation="2" result="effect1_foregroundBlur_412_1589"/>
</filter>
<clipPath id="clip0_412_1589">
<rect width="32" height="32" fill="white"/>
</clipPath>
</defs>
</svg>
