<svg width="74" height="74" viewBox="0 0 74 74" fill="none" xmlns="http://www.w3.org/2000/svg">
<rect x="1" y="1" width="72" height="72" rx="5" fill="white"/>
<g clip-path="url(#clip0_396_1579)">
<path d="M22 48.6666H52" stroke="#0A67D1" stroke-width="1.7" stroke-linecap="round" stroke-linejoin="round"/>
<path d="M46.9997 27H26.9997C26.0792 27 25.333 27.7462 25.333 28.6667V42C25.333 42.9205 26.0792 43.6667 26.9997 43.6667H46.9997C47.9201 43.6667 48.6663 42.9205 48.6663 42V28.6667C48.6663 27.7462 47.9201 27 46.9997 27Z" stroke="#0A67D1" stroke-width="1.7" stroke-linecap="round" stroke-linejoin="round"/>
<g filter="url(#filter0_f_396_1579)">
<path d="M47.2857 32H26.7143C25.7675 32 25 32.5373 25 33.2V42.8C25 43.4627 25.7675 44 26.7143 44H47.2857C48.2325 44 49 43.4627 49 42.8V33.2C49 32.5373 48.2325 32 47.2857 32Z" fill="#0A67D1" fill-opacity="0.2"/>
</g>
</g>
<rect x="1" y="1" width="72" height="72" rx="5" stroke="#F6F5FA"/>
<defs>
<filter id="filter0_f_396_1579" x="21" y="28" width="32" height="20" filterUnits="userSpaceOnUse" color-interpolation-filters="sRGB">
<feFlood flood-opacity="0" result="BackgroundImageFix"/>
<feBlend mode="normal" in="SourceGraphic" in2="BackgroundImageFix" result="shape"/>
<feGaussianBlur stdDeviation="2" result="effect1_foregroundBlur_396_1579"/>
</filter>
<clipPath id="clip0_396_1579">
<rect width="40" height="40" fill="white" transform="translate(17 17)"/>
</clipPath>
</defs>
</svg>
