<svg width="32" height="32" viewBox="0 0 32 32" fill="none" xmlns="http://www.w3.org/2000/svg">
<g clip-path="url(#clip0_614_4257)">
<g filter="url(#filter0_f_614_4257)">
<path d="M4.7998 26.4V24.5333C4.7998 23.5432 5.36171 22.5936 6.3619 21.8935C7.3621 21.1933 8.71865 20.8 10.1331 20.8H15.4665C16.881 20.8 18.2375 21.1933 19.2377 21.8935C20.2379 22.5936 20.7998 23.5432 20.7998 24.5333V26.4" fill="#0A67D1" fill-opacity="0.2"/>
</g>
<g filter="url(#filter1_f_614_4257)">
<path d="M11.9999 12.8C15.0927 12.8 17.5999 11.0091 17.5999 8.79999C17.5999 6.59085 15.0927 4.79999 11.9999 4.79999C8.90711 4.79999 6.3999 6.59085 6.3999 8.79999C6.3999 11.0091 8.90711 12.8 11.9999 12.8Z" fill="#0A67D1" fill-opacity="0.2"/>
</g>
<path d="M11.9998 16.2666C14.9454 16.2666 17.3332 13.8788 17.3332 10.9333C17.3332 7.98779 14.9454 5.59998 11.9998 5.59998C9.05432 5.59998 6.6665 7.98779 6.6665 10.9333C6.6665 13.8788 9.05432 16.2666 11.9998 16.2666Z" stroke="#0A67D1" stroke-width="1.7" stroke-linecap="round" stroke-linejoin="round"/>
<path d="M4 28V25.3333C4 23.9188 4.5619 22.5623 5.5621 21.5621C6.56229 20.5619 7.91885 20 9.33333 20H14.6667C16.0812 20 17.4377 20.5619 18.4379 21.5621C19.4381 22.5623 20 23.9188 20 25.3333V28" stroke="#0A67D1" stroke-width="1.7" stroke-linecap="round" stroke-linejoin="round"/>
<path d="M21.3335 14.6667L24.0002 17.3333L29.3335 12" stroke="#0A67D1" stroke-width="1.7" stroke-linecap="round" stroke-linejoin="round"/>
</g>
<defs>
<filter id="filter0_f_614_4257" x="0.799805" y="16.8" width="24" height="13.6" filterUnits="userSpaceOnUse" color-interpolation-filters="sRGB">
<feFlood flood-opacity="0" result="BackgroundImageFix"/>
<feBlend mode="normal" in="SourceGraphic" in2="BackgroundImageFix" result="shape"/>
<feGaussianBlur stdDeviation="2" result="effect1_foregroundBlur_614_4257"/>
</filter>
<filter id="filter1_f_614_4257" x="2.3999" y="0.799988" width="19.2002" height="16" filterUnits="userSpaceOnUse" color-interpolation-filters="sRGB">
<feFlood flood-opacity="0" result="BackgroundImageFix"/>
<feBlend mode="normal" in="SourceGraphic" in2="BackgroundImageFix" result="shape"/>
<feGaussianBlur stdDeviation="2" result="effect1_foregroundBlur_614_4257"/>
</filter>
<clipPath id="clip0_614_4257">
<rect width="32" height="32" fill="white"/>
</clipPath>
</defs>
</svg>
