<svg width="20" height="21" viewBox="0 0 20 21" fill="none" xmlns="http://www.w3.org/2000/svg">
<g clip-path="url(#clip0_404_1555)">
<path d="M2.5 18L3.875 14.8333C2.82305 13.34 2.35222 11.5142 2.55087 9.6984C2.74952 7.88262 3.60399 6.20176 4.95392 4.97124C6.30386 3.74073 8.05646 3.04515 9.88282 3.01506C11.7092 2.98496 13.4837 3.62241 14.8735 4.80778C16.2632 5.99316 17.1726 7.64496 17.431 9.4532C17.6893 11.2614 17.2789 13.1018 16.2768 14.629C15.2746 16.1561 13.7495 17.265 11.9878 17.7476C10.2261 18.2301 8.34886 18.0532 6.70833 17.25L2.5 18Z" stroke="#ECEBF2" stroke-width="1.2" stroke-linecap="round" stroke-linejoin="round"/>
<path d="M7.5 8.83337C7.5 8.94388 7.5439 9.04986 7.62204 9.128C7.70018 9.20614 7.80616 9.25004 7.91667 9.25004C8.02717 9.25004 8.13315 9.20614 8.21129 9.128C8.28943 9.04986 8.33333 8.94388 8.33333 8.83337V8.00004C8.33333 7.88953 8.28943 7.78355 8.21129 7.70541C8.13315 7.62727 8.02717 7.58337 7.91667 7.58337C7.80616 7.58337 7.70018 7.62727 7.62204 7.70541C7.5439 7.78355 7.5 7.88953 7.5 8.00004V8.83337ZM7.5 8.83337C7.5 9.93844 7.93899 10.9983 8.72039 11.7797C9.50179 12.5611 10.5616 13 11.6667 13M11.6667 13H12.5C12.6105 13 12.7165 12.9561 12.7946 12.878C12.8728 12.7999 12.9167 12.6939 12.9167 12.5834C12.9167 12.4729 12.8728 12.3669 12.7946 12.2887C12.7165 12.2106 12.6105 12.1667 12.5 12.1667H11.6667C11.5562 12.1667 11.4502 12.2106 11.372 12.2887C11.2939 12.3669 11.25 12.4729 11.25 12.5834C11.25 12.6939 11.2939 12.7999 11.372 12.878C11.4502 12.9561 11.5562 13 11.6667 13Z" stroke="#ECEBF2" stroke-width="1.2" stroke-linecap="round" stroke-linejoin="round"/>
</g>
<defs>
<clipPath id="clip0_404_1555">
<rect width="20" height="20" fill="white" transform="translate(0 0.5)"/>
</clipPath>
</defs>
</svg>
